HIERARCHY
ROOT hip
{
  OFFSET 0 0 0
  CHANNELS 6 Xposition Yposition Zposition Zrotation Yrotation Xrotation
  JOINT abdomen
  {
    OFFSET 0 20.6881 -0.73152
    CHANNELS 3 Zrotation Xrotation Yrotation
    JOINT chest
    {
      OFFSET 0 11.7043 -0.48768
      CHANNELS 3 Zrotation Xrotation Yrotation
      JOINT neck
      {
        OFFSET 0 22.1894 -2.19456
        CHANNELS 3 Zrotation Xrotation Yrotation
        JOINT head
        {
          OFFSET -0.24384 7.07133 1.2192
          CHANNELS 3 Zrotation Xrotation Yrotation
          JOINT leftEye
          {
            OFFSET 4.14528 8.04674 8.04672
            CHANNELS 3 Zrotation Xrotation Yrotation
            End Site
            {
              OFFSET 1 0 0
            }
          }
          JOINT rightEye
          {
            OFFSET -3.6576 8.04674 8.04672
            CHANNELS 3 Zrotation Xrotation Yrotation
            End Site
            {
              OFFSET 1 0 0
            }
          }
        }
      }
      JOINT rCollar
      {
        OFFSET -2.68224 19.2634 -4.8768
        CHANNELS 3 Zrotation Xrotation Yrotation
        JOINT rShldr
        {
          OFFSET -8.77824 -1.95073 1.46304
          CHANNELS 3 Zrotation Xrotation Yrotation
          JOINT rForeArm
          {
            OFFSET -28.1742 -1.7115 0.48768
            CHANNELS 3 Zrotation Xrotation Yrotation
            JOINT rHand
            {
              OFFSET -22.5879 0.773209 7.07136
              CHANNELS 3 Zrotation Xrotation Yrotation
              JOINT rThumb1
              {
                OFFSET -1.2192 -0.487915 3.41376
                CHANNELS 3 Zrotation Xrotation Yrotation
                JOINT rThumb2
                {
                  OFFSET -3.37035 -0.52449 3.41376
                  CHANNELS 3 Zrotation Xrotation Yrotation
                  End Site
                  {
                    OFFSET -1.78271 -1.18214 1.43049
                  }
                }
              }
              JOINT rIndex1
              {
                OFFSET -7.75947 0.938293 5.60832
                CHANNELS 3 Zrotation Xrotation Yrotation
                JOINT rIndex2
                {
                  OFFSET -2.54057 -0.884171 1.56538
                  CHANNELS 3 Zrotation Xrotation Yrotation
                  End Site
                  {
                    OFFSET -1.62519 -0.234802 1.16502
                  }
                }
              }
              JOINT rMid1
              {
                OFFSET -8.24714 1.18213 3.41376
                CHANNELS 3 Zrotation Xrotation Yrotation
                JOINT rMid2
                {
                  OFFSET -3.10165 -0.590103 1.0647
                  CHANNELS 3 Zrotation Xrotation Yrotation
                  End Site
                  {
                    OFFSET -2.48547 -0.328903 0.83742
                  }
                }
              }
              JOINT rRing1
              {
                OFFSET -8.82822 0.546677 1.51678
                CHANNELS 3 Zrotation Xrotation Yrotation
                JOINT rRing2
                {
                  OFFSET -2.60934 -0.819778 -0.0198488
                  CHANNELS 3 Zrotation Xrotation Yrotation
                  End Site
                  {
                    OFFSET -2.33842 -0.294052 0.168128
                  }
                }
              }
              JOINT rPinky1
              {
                OFFSET -8.27202 -0.0477905 -0.4584
                CHANNELS 3 Zrotation Xrotation Yrotation
                JOINT rPinky2
                {
                  OFFSET -1.82734 -0.647385 -0.700984
                  CHANNELS 3 Zrotation Xrotation Yrotation
                  End Site
                  {
                    OFFSET -1.69225 -0.51767 -0.607171
                  }
                }
              }
            }
          }
        }
      }
      JOINT lCollar
      {
        OFFSET 2.68224 19.2634 -4.8768
        CHANNELS 3 Zrotation Xrotation Yrotation
        JOINT lShldr
        {
          OFFSET 8.77824 -1.95073 1.46304
          CHANNELS 3 Zrotation Xrotation Yrotation
          JOINT lForeArm
          {
            OFFSET 28.1742 -1.7115 0.48768
            CHANNELS 3 Zrotation Xrotation Yrotation
            JOINT lHand
            {
              OFFSET 22.5879 0.773209 7.07136
              CHANNELS 3 Zrotation Xrotation Yrotation
              JOINT lThumb1
              {
                OFFSET 1.2192 -0.487915 3.41376
                CHANNELS 3 Zrotation Xrotation Yrotation
                JOINT lThumb2
                {
                  OFFSET 3.37035 -0.52449 3.41376
                  CHANNELS 3 Zrotation Xrotation Yrotation
                  End Site
                  {
                    OFFSET 1.78271 -1.18214 1.43049
                  }
                }
              }
              JOINT lIndex1
              {
                OFFSET 7.75947 0.938293 5.60832
                CHANNELS 3 Zrotation Xrotation Yrotation
                JOINT lIndex2
                {
                  OFFSET 2.54057 -0.884171 1.56538
                  CHANNELS 3 Zrotation Xrotation Yrotation
                  End Site
                  {
                    OFFSET 1.62519 -0.234802 1.16502
                  }
                }
              }
              JOINT lMid1
              {
                OFFSET 8.24714 1.18213 3.41376
                CHANNELS 3 Zrotation Xrotation Yrotation
                JOINT lMid2
                {
                  OFFSET 3.10165 -0.590103 1.0647
                  CHANNELS 3 Zrotation Xrotation Yrotation
                  End Site
                  {
                    OFFSET 2.48547 -0.328903 0.83742
                  }
                }
              }
              JOINT lRing1
              {
                OFFSET 8.82822 0.546677 1.51678
                CHANNELS 3 Zrotation Xrotation Yrotation
                JOINT lRing2
                {
                  OFFSET 2.60934 -0.819778 -0.0198488
                  CHANNELS 3 Zrotation Xrotation Yrotation
                  End Site
                  {
                    OFFSET 2.33842 -0.294052 0.168128
                  }
                }
              }
              JOINT lPinky1
              {
                OFFSET 8.27202 -0.0477905 -0.4584
                CHANNELS 3 Zrotation Xrotation Yrotation
                JOINT lPinky2
                {
                  OFFSET 1.82734 -0.647385 -0.700984
                  CHANNELS 3 Zrotation Xrotation Yrotation
                  End Site
                  {
                    OFFSET 1.69225 -0.51767 -0.607171
                  }
                }
              }
            }
          }
        }
      }
    }
  }
  JOINT rButtock
  {
    OFFSET -8.77824 4.35084 1.2192
    CHANNELS 3 Zrotation Xrotation Yrotation
    JOINT rThigh
    {
      OFFSET 0 -1.70687 -2.19456
      CHANNELS 3 Zrotation Xrotation Yrotation
      JOINT rShin
      {
        OFFSET 0 -36.8199 0.73152
        CHANNELS 3 Zrotation Xrotation Yrotation
        JOINT rFoot
        {
          OFFSET 0.73152 -45.1104 -5.12064
          CHANNELS 3 Zrotation Xrotation Yrotation
          End Site
          {
            OFFSET -1.1221 -3.69964 12.103
          }
        }
      }
    }
  }
  JOINT lButtock
  {
    OFFSET 8.77824 4.35084 1.2192
    CHANNELS 3 Zrotation Xrotation Yrotation
    JOINT lThigh
    {
      OFFSET 0 -1.70687 -2.19456
      CHANNELS 3 Zrotation Xrotation Yrotation
      JOINT lShin
      {
        OFFSET 0 -36.8199 0.73152
        CHANNELS 3 Zrotation Xrotation Yrotation
        JOINT lFoot
        {
          OFFSET -0.73152 -45.1104 -5.12064
          CHANNELS 3 Zrotation Xrotation Yrotation
          End Site
          {
            OFFSET 1.1221 -3.69964 12.103
          }
        }
      }
    }
  }
}
MOTION
Frames:	5
Frame Time:	0.00833333
69.8292 72.2143 13.8112 175.721 -66.5101 -161.155 -3.9499 47.3425 5.61029 3.96502 -10.7184 0.331512 -11.7074 -16.2978 -7.08331 8.84867 10.5906 -8.63541 -0.0 0.0 0.0 -0.0 0.0 0.0 -4.42127e-13 -2.36639e-15 2.86349e-13 64.6643 33.2287 13.2268 -27.9688 -30.4291 67.934 -1.28867 -30.4309 -4.73554 -3.6993e-09 3.94721e-09 -9.58065e-09 -6.17035e-09 6.8292e-09 -1.66214e-08 -3.6993e-09 3.94721e-09 -9.58066e-09 7.73091 5.47488 0.417314 -3.6993e-09 3.94721e-09 -9.58065e-09 2.90554 0.965183 0.102902 -3.6993e-09 3.94721e-09 -9.58065e-09 10.2786 0.731801 0.0259123 -3.69931e-09 3.94721e-09 -9.58064e-09 2.22167 -0.733487 -0.20892 -4.41997e-13 -2.40289e-15 2.86151e-13 -57.9077 52.7918 -10.5223 26.9553 -26.1896 -61.1828 0.727332 -23.4759 3.49943 3.08483e-09 2.5523e-10 2.35096e-09 5.27234e-09 3.99952e-10 4.12206e-09 3.08482e-09 2.55227e-10 2.35097e-09 -7.73091 5.47488 -0.417314 3.08483e-09 2.55221e-10 2.35096e-09 -2.90554 0.965183 -0.102902 3.08481e-09 2.55224e-10 2.35097e-09 -10.2786 0.731801 -0.0259123 3.08485e-09 2.55228e-10 2.35096e-09 -2.22167 -0.733487 0.20892 -2.03217e-16 0.0 -3.88251e-19 -31.7136 -54.3703 -14.7076 -0.270695 40.9699 0.961908 0.59064 2.3257 -1.35457 2.03217e-16 0.0 3.88251e-19 24.6885 -51.5721 29.9893 1.40233 65.4159 -2.21802 4.63133 -20.9962 11.2346
69.9325 72.1124 13.4635 175.521 -66.073 -160.918 -3.99224 47.3541 5.73717 3.92398 -10.6619 0.348969 -11.22 -16.5548 -6.63378 7.90912 10.7908 -7.90187 -0.0 0.0 0.0 -0.0 0.0 0.0 -4.42814e-13 1.73708e-13 2.28562e-13 63.8798 33.5823 14.1693 -27.9971 -30.5931 68.1939 -1.28357 -30.3742 -4.72498 -2.43451e-09 2.69582e-09 -6.83239e-09 -4.0522e-09 4.66071e-09 -1.18456e-08 -2.43452e-09 2.69582e-09 -6.83241e-09 7.73091 5.47488 0.417314 -2.43451e-09 2.69582e-09 -6.8324e-09 2.90554 0.965183 0.102902 -2.43451e-09 2.69582e-09 -6.8324e-09 10.2786 0.731801 0.0259123 -2.43452e-09 2.69582e-09 -6.83239e-09 2.22167 -0.733487 -0.20892 -4.42706e-13 1.73676e-13 2.28366e-13 -58.7491 52.6447 -9.61205 26.9795 -26.2695 -61.3087 0.727851 -23.4775 3.49988 2.30353e-09 3.86303e-10 9.2539e-10 3.95198e-09 6.41393e-10 1.64438e-09 2.30352e-09 3.86298e-10 9.25404e-10 -7.73091 5.47488 -0.417314 2.30353e-09 3.86295e-10 9.25391e-10 -2.90554 0.965183 -0.102902 2.30352e-09 3.86298e-10 9.254e-10 -10.2786 0.731801 -0.0259123 2.30355e-09 3.86301e-10 9.25385e-10 -2.22167 -0.733487 0.20892 -2.03217e-16 0.0 -3.88251e-19 -31.9764 -55.0211 -15.3852 -0.283169 41.5038 0.977634 0.601512 2.27864 -0.88109 2.03217e-16 0.0 3.88251e-19 25.2058 -51.7656 30.3906 1.41901 65.6291 -2.24723 4.71601 -20.9447 11.4411
70.0892 71.9774 13.0949 175.564 -65.7423 -160.709 -4.12292 47.3253 5.85934 3.86634 -10.553 0.352031 -10.6074 -16.8306 -6.06933 6.84834 10.989 -6.99488 -0.0 0.0 0.0 -0.0 0.0 0.0 -4.40503e-13 4.29063e-13 1.44116e-13 62.9647 34.008 15.3113 -28.0265 -30.7697 68.4749 -1.28932 -30.4317 -4.736 -3.65576e-10 6.09588e-10 -2.22284e-09 -5.8911e-10 1.04598e-09 -3.83681e-09 -3.65575e-10 6.09589e-10 -2.22286e-09 7.73091 5.47488 0.417314 -3.65576e-10 6.09586e-10 -2.22285e-09 2.90554 0.965183 0.102902 -3.65567e-10 6.09587e-10 -2.22285e-09 10.2786 0.731801 0.0259123 -3.65578e-10 6.09585e-10 -2.22284e-09 2.22167 -0.733487 -0.20892 -4.40458e-13 4.29041e-13 1.43901e-13 -59.4627 52.5077 -8.72996 27.01 -26.371 -61.4702 0.727737 -23.4654 3.49816 9.98923e-10 6.29465e-10 -1.41949e-09 1.74668e-09 1.08623e-09 -2.43135e-09 9.98907e-10 6.29459e-10 -1.41948e-09 -7.73091 5.47488 -0.417314 9.98922e-10 6.29461e-10 -1.41949e-09 -2.90554 0.965183 -0.102902 9.98912e-10 6.29463e-10 -1.41949e-09 -10.2786 0.731801 -0.0259123 9.98931e-10 6.29465e-10 -1.4195e-09 -2.22167 -0.733487 0.20892 -2.03217e-16 0.0 -3.88251e-19 -32.2838 -55.6845 -16.0426 -0.296242 42.0528 0.994785 0.614596 2.22605 -0.415271 2.03217e-16 0.0 3.88251e-19 25.6519 -51.9938 30.7157 1.43414 65.8275 -2.2765 4.82382 -20.8435 11.7144
70.2134 71.8931 12.7569 175.617 -65.5952 -160.42 -4.23605 47.2957 5.94049 3.77715 -10.4387 0.344268 -9.95787 -17.1024 -5.46432 5.75834 11.1664 -6.02473 -0.0 0.0 0.0 -0.0 0.0 0.0 -4.28647e-13 6.86567e-13 5.4851e-14 61.9645 34.4659 16.5861 -28.054 -30.9418 68.7514 -1.30507 -30.5957 -4.76712 1.68144e-09 -1.46352e-09 2.36912e-09 2.83705e-09 -2.54574e-09 4.14072e-09 1.68144e-09 -1.46352e-09 2.3691e-09 7.73091 5.47488 0.417314 1.68144e-09 -1.46352e-09 2.36912e-09 2.90554 0.965183 0.102902 1.68145e-09 -1.46352e-09 2.36912e-09 10.2786 0.731801 0.0259123 1.68144e-09 -1.46353e-09 2.36912e-09 2.22167 -0.733487 -0.20892 -4.28675e-13 6.86556e-13 5.46138e-14 -60.0829 52.3723 -7.88535 27.0421 -26.4793 -61.6436 0.734178 -23.5604 3.5141 -2.97989e-10 8.58097e-10 -3.67288e-09 -4.4704e-10 1.50538e-09 -6.34873e-09 -2.98004e-10 8.58091e-10 -3.67286e-09 -7.73091 5.47488 -0.417314 -2.97988e-10 8.58097e-10 -3.67288e-09 -2.90554 0.965183 -0.102902 -2.97993e-10 8.58099e-10 -3.67288e-09 -10.2786 0.731801 -0.0259123 -2.97985e-10 8.58099e-10 -3.67289e-09 -2.22167 -0.733487 0.20892 -2.03217e-16 0.0 -3.88251e-19 -32.6357 -56.3387 -16.7008 -0.310249 42.642 1.0145 0.628148 2.1322 -0.0108147 2.03217e-16 0.0 3.88251e-19 26.0579 -52.2475 30.9818 1.44822 66.0109 -2.30443 4.91506 -20.7316 11.9582
70.2967 71.8059 12.484 175.059 -65.648 -159.572 -4.2262 47.3049 5.94467 3.64143 -10.3657 0.329244 -9.36193 -17.3481 -4.89372 4.73367 11.3054 -5.10224 -0.0 0.0 0.0 -0.0 0.0 0.0 -4.007e-13 8.69086e-13 -1.73937e-14 60.9306 34.9194 17.9235 -28.0772 -31.0933 68.9969 -1.33019 -30.8585 -4.81701 2.88047e-09 -2.67554e-09 5.06461e-09 4.84444e-09 -4.64519e-09 8.8229e-09 2.88047e-09 -2.67554e-09 5.06459e-09 7.73091 5.47488 0.417314 2.88047e-09 -2.67554e-09 5.06461e-09 2.90554 0.965183 0.102902 2.88048e-09 -2.67554e-09 5.06461e-09 10.2786 0.731801 0.0259123 2.88047e-09 -2.67555e-09 5.06461e-09 2.22167 -0.733487 -0.20892 -4.00776e-13 8.69086e-13 -1.76421e-14 -60.6434 52.2302 -7.08815 27.0716 -26.5801 -61.805 0.754797 -23.8832 3.56782 -1.05619e-09 9.45579e-10 -4.82394e-09 -1.73267e-09 1.66977e-09 -8.35138e-09 -1.0562e-09 9.45573e-10 -4.82392e-09 -7.73091 5.47488 -0.417314 -1.05619e-09 9.45582e-10 -4.82394e-09 -2.90554 0.965183 -0.102902 -1.05619e-09 9.45582e-10 -4.82395e-09 -10.2786 0.731801 -0.0259123 -1.05619e-09 9.45583e-10 -4.82396e-09 -2.22167 -0.733487 0.20892 -2.03217e-16 0.0 -3.88251e-19 -33.032 -56.9614 -17.3808 -0.325645 43.2967 1.03802 0.640904 1.96136 0.278555 2.03217e-16 0.0 3.88251e-19 26.4549 -52.5174 31.2057 1.4617 66.1793 -2.32959 4.95138 -20.6486 12.077
